<svg xmlns="http://www.w3.org/2000/svg" width="140" height="17" viewBox="0 0 90 11"><g fill="none" fill-rule="evenodd" transform="translate(15 -1)"><path fill="#EF4445" d="M-12.6625462,1.22378105 C-11.4353433,0.744652122 -10.0451889,1.08576069 -9.1667653,2.08155682 C-9.10567497,2.14809483 -9.02024078,2.18585991 -8.93080524,2.18585991 C-8.8413697,2.18585991 -8.7559355,2.14809483 -8.69484517,2.08155682 C-7.81901327,1.07909739 -6.42546663,0.733563326 -5.19532393,1.21384003 C-3.96518123,1.69411674 -3.15533486,2.89990738 -3.16153846,4.24186208 C-3.16153846,5.58764527 -4.02698969,6.59257509 -4.8923689,7.47409247 L-8.06081067,10.596427 C-8.27827042,10.8508431 -8.59256075,10.9978169 -8.92371571,11 C-9.25487068,11.0020897 -9.57096331,10.8591828 -9.7915691,10.6075929 L-12.9692416,7.47409247 C-13.8346208,6.59257509 -14.7,5.59352206 -14.7,4.24186208 C-14.7,2.90309925 -13.889749,1.70290997 -12.6625462,1.22378105 Z"/><path fill="currentColor" d="M3.408,10.144 C5.664,10.144 7.008,9.172 7.008,7.408 C7.008,4.396 1.824,5.536 1.824,4.036 C1.824,3.376 2.628,3.196 3.324,3.196 C4.548,3.196 5.772,3.724 6.492,4.516 L6.636,4.516 L6.636,2.536 C5.832,1.852 4.74,1.456 3.42,1.456 C1.692,1.456 0.012,2.296 0.012,3.964 C0.012,6.904 5.088,5.992 5.088,7.408 C5.088,8.14 4.248,8.32 3.54,8.32 C2.76,8.32 1.272,8.128 0.168,6.964 L1.13686838e-13,6.964 L1.13686838e-13,9.232 C1.188,9.976 2.484,10.144 3.408,10.144 Z M8.696,3.196 C9.392,3.196 9.836,2.716 9.836,2.14 C9.836,1.564 9.38,1.084 8.696,1.084 C8,1.084 7.544,1.564 7.544,2.14 C7.544,2.716 7.988,3.196 8.696,3.196 Z M9.656,10 L9.656,3.28 L9.596,3.28 C9.368,3.496 9.02,3.592 8.696,3.592 C8.36,3.592 8.012,3.496 7.784,3.28 L7.724,3.28 L7.724,10 L9.656,10 Z M12.448,10 L12.448,8.74 C12.448,6.82 12.436,4.648 14.008,4.648 C15.1,4.648 15.304,5.656 15.304,6.736 L15.304,10 L17.212,10 L17.212,8.116 C17.212,6.34 17.404,4.648 18.832,4.648 C19.972,4.648 20.152,5.872 20.152,7.048 L20.152,10 L22.072,10 L22.072,5.908 C22.072,3.556 21.184,2.656 19.792,2.656 C18.112,2.656 17.2,4.024 17.02,6.604 L16.912,6.604 C16.948,6.268 16.972,5.848 16.972,5.476 C16.972,3.796 16.264,2.656 14.8,2.656 C13.228,2.656 12.52,3.784 12.22,6.604 L12.1,6.604 L12.508,2.8 L10.54,2.8 L10.54,10 L12.448,10 Z M24.792,11.8 L24.792,9.04 L24.54,7.3 L24.672,7.3 C24.84,9.604 26.124,10.144 27.504,10.144 C29.424,10.144 30.636,8.536 30.636,6.388 C30.636,4.24 29.424,2.656 27.504,2.656 C26.484,2.656 25.068,3.184 24.744,5.272 L24.648,5.272 L24.876,2.8 L22.944,2.8 L22.944,11.8 L24.792,11.8 Z M26.7,8.296 C25.5,8.296 24.552,7.66 24.552,6.352 C24.552,5.056 25.5,4.432 26.7,4.432 C27.912,4.432 28.848,5.056 28.848,6.352 C28.848,7.66 27.912,8.296 26.7,8.296 Z M33.2,10 L33.2,1 L31.28,1 L31.28,10 L33.2,10 Z M37.852,10.144 C39.028,10.144 39.988,9.868 40.576,9.496 L40.576,7.672 L40.456,7.672 C39.82,8.128 38.944,8.38 38.068,8.38 C37.192,8.38 35.596,8.08 35.56,6.34 L40.852,6.52 C40.888,6.256 40.912,6.016 40.912,5.788 C40.912,3.808 39.388,2.656 37.528,2.656 C35.296,2.656 33.796,4.324 33.796,6.388 C33.796,8.536 35.392,10.144 37.852,10.144 Z M35.644,5.824 C35.86,4.744 36.808,4.324 37.552,4.324 C38.464,4.324 39.184,4.888 39.268,5.752 L35.644,5.824 Z M50.036,10 L50.036,8.368 L46.592,8.368 C46.352,8.368 46.064,8.368 45.956,8.596 L45.956,1.6 L44.012,1.6 L44.012,10 L50.036,10 Z M51.664,3.196 C52.36,3.196 52.804,2.716 52.804,2.14 C52.804,1.564 52.348,1.084 51.664,1.084 C50.968,1.084 50.512,1.564 50.512,2.14 C50.512,2.716 50.956,3.196 51.664,3.196 Z M52.624,10 L52.624,3.28 L52.564,3.28 C52.336,3.496 51.988,3.592 51.664,3.592 C51.328,3.592 50.98,3.496 50.752,3.28 L50.692,3.28 L50.692,10 L52.624,10 Z M63.908,2.656 C65.768,2.656 67.292,3.808 67.292,5.788 C67.292,6.016 67.268,6.256 67.232,6.52 L61.94,6.34 C61.976,8.08 63.572,8.38 64.448,8.38 C65.324,8.38 66.2,8.128 66.836,7.672 L66.956,7.672 L66.956,9.496 C66.368,9.868 65.408,10.144 64.232,10.144 C61.772,10.144 60.176,8.536 60.176,6.388 C60.176,4.324 61.676,2.656 63.908,2.656 Z M55.524,1 L55.2,6.484 L55.32,6.484 C56.592,3.94 58.44,2.8 58.44,2.8 L60.612,2.8 L60.612,2.968 L58.008,5.272 L60.792,9.844 L60.792,10 L58.68,10 L56.688,6.472 L55.476,7.432 L55.476,10 L53.556,10 L53.556,1 L55.524,1 Z M63.932,4.324 C63.188,4.324 62.24,4.744 62.024,5.824 L65.648,5.752 C65.564,4.888 64.844,4.324 63.932,4.324 Z M70.84,10.144 C72.868,10.144 74.08,9.316 74.08,7.816 C74.08,5.236 69.376,6.148 69.376,4.948 C69.376,4.444 70,4.228 70.708,4.228 C71.776,4.228 72.868,4.636 73.528,5.284 L73.672,5.284 L73.672,3.508 C73,3.016 71.956,2.656 70.804,2.656 C69.16,2.656 67.78,3.388 67.78,4.792 C67.78,7.444 72.232,6.544 72.232,7.708 C72.232,8.332 71.524,8.488 70.888,8.488 C70.192,8.488 68.944,8.344 67.948,7.336 L67.804,7.336 L67.804,9.352 C68.872,10.024 70,10.144 70.84,10.144 Z"/></g></svg>
